<svg width="353" height="384" viewBox="0 0 353 384" fill="none" xmlns="http://www.w3.org/2000/svg">
<g clip-path="url(#clip0_1210_548)">
<path d="M132.8 383.86C125.32 379.98 123.85 376.3 126.62 368.4C142.38 323.47 158.14 278.54 173.91 233.61C174.863 230.883 173.823 229.517 170.79 229.51C129.7 229.44 88.61 229.37 47.52 229.29C41.44 229.28 37.56 226.97 36.19 222.56C34.96 218.6 36.19 215.28 38.74 212.17C56.2801 190.71 73.76 169.2 91.3 147.73C130.01 100.34 168.74 52.98 207.41 5.57C209.25 3.31 211.43 1.61 213.77 0H219.02C226.25 3.79 227.78 7.69 225 15.6C209.18 60.51 193.34 105.41 177.51 150.31C176.563 153.003 177.537 154.353 180.43 154.36C221.39 154.43 262.35 154.5 303.31 154.57C303.93 154.57 304.56 154.55 305.18 154.57C309.32 154.74 312.77 156.18 314.68 160.1C316.64 164.13 315.79 167.82 313.07 171.25C301.2 186.22 289.49 201.3 277.5 216.17C233.47 270.8 188.51 324.67 143.94 378.86C142.25 380.92 140.1 382.28 138.06 383.84H132.81L132.8 383.86Z" fill="white"/>
<path d="M352.54 187.941C352.3 271.011 295.8 341.861 216.23 360.321C210.24 361.711 204.71 358.861 203.32 353.681C201.8 347.981 205.18 342.661 211.58 341.171C241.29 334.241 267 320.051 288.24 298.211C314.43 271.281 330.01 239.011 332.2 201.441C335.98 136.831 309.28 87.681 254.2 53.891C250 51.321 246.55 48.411 247.11 43.041C247.86 35.801 255.4 32.141 262.07 35.721C276.02 43.211 288.59 52.611 299.87 63.721C329.53 92.931 346.58 128.331 351.54 169.581C352.33 176.151 352.75 182.761 352.54 187.931V187.941Z" fill="white"/>
<path d="M137.34 17.9592C142.83 18.0292 146.74 21.4192 147.59 26.2992C148.4 30.9592 145.39 35.6892 140.48 37.2092C135.25 38.8292 129.84 39.9692 124.72 41.8792C68.4601 62.8592 33.8401 102.829 22.1501 161.629C9.39011 225.839 41.6901 293.449 99.0501 325.089C99.9201 325.569 100.81 326.039 101.64 326.579C106.54 329.799 108.05 335.249 105.36 339.869C102.52 344.749 97.0001 346.299 91.7601 343.469C75.8201 334.859 61.5101 324.069 49.0401 310.919C20.7501 281.089 4.52011 245.689 0.740108 204.699C-7.21989 118.379 49.9101 38.9492 134.65 18.4092C135.73 18.1492 136.85 18.0292 137.34 17.9492V17.9592Z" fill="white"/>
</g>
<defs>
<clipPath id="clip0_1210_548">
<rect width="352.6" height="383.86" fill="white"/>
</clipPath>
</defs>
</svg>
